<?xml version="1.0" encoding="UTF-8"?>
<svg id="Capa_2" data-name="Capa 2" xmlns="http://www.w3.org/2000/svg" viewBox="0 0 424.93 243.28">
  <defs>
    <style>
      .cls-1 {
        fill: #fff;
      }
    </style>
  </defs>
  <g id="Layer_1" data-name="Layer 1">
    <g>
      <path class="cls-1" d="M2,0h51.79c9.03,0,16.95.97,23.74,2.91,6.8,1.94,12.47,4.64,17.03,8.11,4.56,3.46,7.98,7.6,10.26,12.41s3.42,10.05,3.42,15.7c0,4.64-.89,8.99-2.66,13.04-1.77,4.05-4.29,7.71-7.54,10.95-3.25,3.25-7.13,6.08-11.65,8.49-4.52,2.41-9.48,4.24-14.88,5.51l54.58,72.82h-29.25l-52.05-70.54h-17.6v70.54H2V0ZM27.2,71.93h14.44c5.66,0,10.89-.74,15.7-2.22,4.81-1.48,8.97-3.61,12.47-6.39,3.5-2.79,6.25-6.16,8.23-10.13,1.98-3.97,2.98-8.4,2.98-13.3,0-4.47-.78-8.57-2.34-12.28-1.56-3.71-3.74-6.92-6.52-9.62-2.79-2.7-6.12-4.81-10-6.33-3.89-1.52-8.15-2.28-12.79-2.28h-22.16v62.56Z"/>
      <path class="cls-1" d="M144.33,149.94h-12.54l48.37-59.14-40.9-56.35h26.97l28.37,38.75,31.79-38.75h12.54l-38.37,46.86,49.64,68.64h-27.23l-36.72-51.03-41.92,51.03Z"/>
    </g>
    <g>
      <path class="cls-1" d="M254.43,58.86h9.27v51.6h27.71v3.54h-36.98v-55.14Z"/>
      <path class="cls-1" d="M321.25,57.61l25.94,56.39h-9.41l-8.43-18.39h-23.61l-8.71,18.39h-4.66l26.59-56.39h2.28ZM307.38,92.02h20.3l-10.01-21.79-10.29,21.79Z"/>
      <path class="cls-1" d="M354.36,58.86h22.21c2.92,0,5.6.33,8.06.98,2.45.65,4.56,1.58,6.31,2.77,1.75,1.2,3.12,2.62,4.1,4.28.98,1.66,1.47,3.5,1.47,5.52,0,1.49-.16,2.83-.47,4.03-.31,1.2-.85,2.3-1.63,3.31-.78,1.01-1.81,1.96-3.1,2.86-1.29.9-2.91,1.82-4.87,2.75v.19c1.96.31,3.73.84,5.31,1.58,1.58.75,2.94,1.7,4.07,2.86,1.13,1.16,2,2.51,2.61,4.03.61,1.52.91,3.21.91,5.08,0,2.08-.46,4.03-1.37,5.84-.92,1.82-2.21,3.39-3.89,4.73-1.68,1.34-3.7,2.39-6.08,3.17-2.38.78-5.02,1.16-7.94,1.16h-25.71v-55.14ZM363.63,83.69h11.78c1.86,0,3.52-.26,4.96-.79,1.44-.53,2.66-1.26,3.66-2.19.99-.93,1.75-2.03,2.26-3.31.51-1.27.77-2.65.77-4.14,0-1.61-.3-3.08-.91-4.4-.61-1.32-1.55-2.44-2.84-3.38-1.29-.93-2.93-1.65-4.91-2.16-1.99-.51-4.36-.77-7.12-.77h-7.64v21.14ZM363.63,109.95h10.01c2.7,0,5.04-.26,7.01-.77,1.97-.51,3.6-1.23,4.89-2.17,1.29-.93,2.24-2.04,2.86-3.33.62-1.29.93-2.72.93-4.31,0-1.74-.28-3.35-.84-4.84s-1.47-2.79-2.72-3.89c-1.26-1.1-2.9-1.97-4.94-2.61-2.03-.64-4.52-.95-7.47-.95h-9.73v22.86Z"/>
    </g>
    <rect class="cls-1" y="176.9" width="105.4" height="12.92"/>
    <polygon class="cls-1" points="210.83 189.82 105.43 189.82 96.19 176.9 210.83 176.9 210.83 189.82"/>
    <polygon class="cls-1" points="316.27 189.82 210.86 189.82 202.36 176.62 316.27 176.62 316.27 189.82"/>
    <polygon class="cls-1" points="421.7 189.82 316.3 189.82 307.14 176.9 421.7 176.9 421.7 189.82"/>
    <g>
      <path class="cls-1" d="M10.32,241.62c.64,0,1.27-.09,1.9-.26.63-.17,1.18-.43,1.67-.77s.88-.76,1.18-1.27.45-1.08.45-1.73c0-.79-.2-1.49-.61-2.11-.41-.62-.94-1.19-1.6-1.7-.66-.52-1.42-1-2.27-1.45s-1.72-.91-2.62-1.36c-.89-.46-1.77-.94-2.62-1.44-.85-.5-1.61-1.06-2.27-1.67-.66-.61-1.2-1.29-1.6-2.05-.41-.76-.61-1.63-.61-2.62s.19-1.91.56-2.75c.37-.84.92-1.58,1.64-2.2.72-.62,1.6-1.11,2.65-1.46,1.05-.35,2.25-.52,3.6-.52,2.44,0,4.38.51,5.79,1.54,1.42,1.03,2.44,2.51,3.07,4.44l-2.23,1.03c-.26-.8-.59-1.53-.99-2.18-.4-.65-.88-1.21-1.44-1.68-.56-.46-1.2-.83-1.93-1.08-.73-.25-1.55-.38-2.47-.38-.81,0-1.53.11-2.14.34-.61.23-1.12.52-1.53.89-.41.37-.71.79-.92,1.25s-.31.94-.31,1.42c0,.68.21,1.31.62,1.87.42.56.97,1.09,1.66,1.59s1.47.99,2.35,1.45c.87.47,1.76.94,2.67,1.42.91.48,1.8.98,2.67,1.51.87.52,1.65,1.09,2.35,1.71.69.62,1.24,1.3,1.66,2.03.41.73.62,1.55.62,2.46,0,1.02-.2,1.98-.59,2.88-.39.9-.98,1.69-1.75,2.36-.77.67-1.74,1.2-2.9,1.59-1.16.39-2.51.59-4.04.59-1.24,0-2.35-.14-3.33-.42-.98-.28-1.84-.67-2.59-1.19-.74-.52-1.38-1.15-1.91-1.9s-.97-1.6-1.32-2.56l2.34-.96c.54,1.7,1.44,3.02,2.7,3.96,1.26.94,2.74,1.41,4.44,1.41Z"/>
      <path class="cls-1" d="M43.93,216.83v1.66h-13.62v9.25h9.1v1.66h-9.1v11.61h13.62v1.66h-17.96v-25.84h17.96Z"/>
      <path class="cls-1" d="M50.54,216.83h8.93c1.56,0,2.92.17,4.09.5,1.17.33,2.15.8,2.94,1.4.79.6,1.38,1.31,1.77,2.14s.59,1.73.59,2.71c0,.8-.15,1.55-.46,2.25-.31.7-.74,1.33-1.3,1.89-.56.56-1.23,1.05-2.01,1.46s-1.63.73-2.56.95l9.41,12.55h-5.04l-8.97-12.16h-3.03v12.16h-4.34v-25.84ZM54.89,229.22h2.49c.97,0,1.88-.13,2.71-.38.83-.25,1.55-.62,2.15-1.1.6-.48,1.08-1.06,1.42-1.75.34-.68.51-1.45.51-2.29,0-.77-.13-1.48-.4-2.12-.27-.64-.64-1.19-1.12-1.66-.48-.46-1.06-.83-1.72-1.09-.67-.26-1.4-.39-2.2-.39h-3.82v10.78Z"/>
      <path class="cls-1" d="M76.95,216.83l9.73,20.56,9.08-20.56h2.05l-11.74,26.45h-1.11l-12.59-26.45h4.58Z"/>
      <path class="cls-1" d="M102.92,216.83h4.34v25.84h-4.34v-25.84Z"/>
      <path class="cls-1" d="M119.51,229.83c0,1.82.27,3.44.81,4.88.54,1.43,1.28,2.64,2.24,3.63.95.99,2.08,1.75,3.38,2.28,1.3.53,2.72.8,4.25.8.9,0,1.77-.17,2.62-.52.84-.35,1.63-.81,2.35-1.38s1.37-1.21,1.94-1.92c.57-.71,1.04-1.43,1.41-2.16l1.81,1.18c-.52.87-1.15,1.71-1.88,2.51-.73.8-1.56,1.51-2.51,2.12-.95.61-2.02,1.1-3.22,1.47-1.2.37-2.54.56-4.03.56-2.14,0-4.08-.36-5.84-1.08-1.75-.72-3.25-1.69-4.5-2.91-1.24-1.22-2.21-2.65-2.89-4.28-.68-1.63-1.03-3.35-1.03-5.17s.35-3.55,1.05-5.19c.7-1.64,1.68-3.09,2.95-4.33,1.27-1.24,2.79-2.23,4.56-2.97,1.77-.73,3.75-1.1,5.91-1.1,1.37,0,2.63.19,3.79.56s2.21.86,3.16,1.47c.95.61,1.8,1.32,2.55,2.12.75.8,1.39,1.64,1.91,2.51l-1.88,1.27c-1.08-2.1-2.28-3.63-3.62-4.61-1.34-.97-2.87-1.46-4.61-1.46-1.5,0-2.9.27-4.2.81-1.3.54-2.43,1.32-3.39,2.33-.96,1.02-1.72,2.25-2.27,3.7-.55,1.45-.83,3.08-.83,4.9Z"/>
      <path class="cls-1" d="M147.48,216.83h4.34v25.84h-4.34v-25.84Z"/>
      <path class="cls-1" d="M173.24,243.28c-1.34,0-2.62-.16-3.84-.49-1.22-.33-2.36-.79-3.42-1.39-1.06-.6-2.02-1.31-2.88-2.14-.87-.83-1.6-1.75-2.2-2.77-.6-1.02-1.07-2.11-1.41-3.27-.33-1.16-.5-2.37-.5-3.62s.17-2.42.5-3.56c.33-1.13.8-2.2,1.41-3.19.6-.99,1.34-1.89,2.2-2.71.87-.82,1.83-1.51,2.88-2.08,1.05-.57,2.19-1.02,3.42-1.34,1.22-.32,2.5-.48,3.84-.48,2.01,0,3.88.35,5.61,1.05,1.73.7,3.23,1.65,4.51,2.86,1.27,1.21,2.28,2.62,3.01,4.25.73,1.62,1.1,3.36,1.1,5.21,0,1.25-.17,2.46-.5,3.62-.33,1.16-.8,2.25-1.41,3.27-.6,1.02-1.34,1.94-2.19,2.77-.86.83-1.81,1.54-2.87,2.14-1.06.6-2.19,1.06-3.42,1.39s-2.5.49-3.84.49ZM173.24,241.99c1.47,0,2.77-.31,3.91-.93,1.14-.62,2.09-1.48,2.87-2.59s1.37-2.42,1.77-3.93c.4-1.51.6-3.16.6-4.95s-.2-3.4-.6-4.88c-.4-1.48-.99-2.75-1.77-3.82s-1.73-1.9-2.87-2.5c-1.13-.6-2.44-.9-3.91-.9s-2.84.3-3.98.9c-1.14.6-2.1,1.43-2.87,2.5-.77,1.07-1.35,2.34-1.73,3.82-.39,1.48-.58,3.1-.58,4.88s.19,3.44.58,4.95c.39,1.51.96,2.82,1.73,3.93.77,1.11,1.73,1.97,2.87,2.59,1.14.62,2.47.93,3.98.93Z"/>
      <path class="cls-1" d="M201.72,241.62c.64,0,1.27-.09,1.9-.26.63-.17,1.18-.43,1.67-.77s.88-.76,1.18-1.27.45-1.08.45-1.73c0-.79-.2-1.49-.61-2.11-.41-.62-.94-1.19-1.6-1.7-.66-.52-1.42-1-2.27-1.45s-1.72-.91-2.62-1.36c-.89-.46-1.77-.94-2.62-1.44-.85-.5-1.61-1.06-2.27-1.67-.66-.61-1.2-1.29-1.6-2.05-.41-.76-.61-1.63-.61-2.62s.19-1.91.56-2.75c.37-.84.92-1.58,1.64-2.2.72-.62,1.6-1.11,2.65-1.46,1.05-.35,2.25-.52,3.6-.52,2.44,0,4.38.51,5.79,1.54,1.42,1.03,2.44,2.51,3.07,4.44l-2.23,1.03c-.26-.8-.59-1.53-.99-2.18-.4-.65-.88-1.21-1.44-1.68-.56-.46-1.2-.83-1.93-1.08-.73-.25-1.55-.38-2.47-.38-.81,0-1.53.11-2.14.34-.61.23-1.12.52-1.53.89-.41.37-.71.79-.92,1.25s-.31.94-.31,1.42c0,.68.21,1.31.62,1.87.42.56.97,1.09,1.66,1.59.69.5,1.47.99,2.35,1.45.87.47,1.76.94,2.67,1.42.91.48,1.8.98,2.67,1.51.87.52,1.65,1.09,2.35,1.71.69.62,1.24,1.3,1.66,2.03.41.73.62,1.55.62,2.46,0,1.02-.2,1.98-.59,2.88-.39.9-.98,1.69-1.75,2.36-.77.67-1.74,1.2-2.9,1.59-1.16.39-2.51.59-4.04.59-1.24,0-2.35-.14-3.33-.42-.98-.28-1.84-.67-2.59-1.19-.74-.52-1.38-1.15-1.91-1.9s-.97-1.6-1.32-2.56l2.34-.96c.54,1.7,1.44,3.02,2.7,3.96,1.26.94,2.74,1.41,4.44,1.41Z"/>
      <path class="cls-1" d="M248.24,216.83v1.66h-13.62v9.25h9.1v1.66h-9.1v11.61h13.62v1.66h-17.96v-25.84h17.96Z"/>
      <path class="cls-1" d="M254.86,216.83h2.42l16.94,18.88h.17v-18.88h1.9v26.45h-1l-18.33-21.02h-.15v20.41h-1.94v-25.84Z"/>
      <path class="cls-1" d="M304.57,241.62c.64,0,1.27-.09,1.9-.26.62-.17,1.18-.43,1.67-.77s.88-.76,1.18-1.27.45-1.08.45-1.73c0-.79-.2-1.49-.61-2.11s-.94-1.19-1.6-1.7-1.42-1-2.27-1.45c-.85-.45-1.72-.91-2.62-1.36-.9-.46-1.77-.94-2.62-1.44-.85-.5-1.61-1.06-2.27-1.67s-1.2-1.29-1.6-2.05c-.41-.76-.61-1.63-.61-2.62s.19-1.91.56-2.75c.37-.84.92-1.58,1.64-2.2.72-.62,1.6-1.11,2.65-1.46,1.05-.35,2.25-.52,3.6-.52,2.44,0,4.38.51,5.79,1.54,1.42,1.03,2.44,2.51,3.07,4.44l-2.23,1.03c-.26-.8-.59-1.53-.99-2.18-.4-.65-.88-1.21-1.44-1.68-.56-.46-1.2-.83-1.93-1.08-.73-.25-1.55-.38-2.47-.38-.82,0-1.53.11-2.14.34-.61.23-1.12.52-1.53.89s-.71.79-.92,1.25c-.2.47-.31.94-.31,1.42,0,.68.21,1.31.62,1.87.41.56.97,1.09,1.66,1.59s1.47.99,2.35,1.45,1.76.94,2.67,1.42,1.8.98,2.67,1.51,1.66,1.09,2.35,1.71c.69.62,1.24,1.3,1.66,2.03.42.73.62,1.55.62,2.46,0,1.02-.2,1.98-.59,2.88-.39.9-.98,1.69-1.75,2.36-.77.67-1.74,1.2-2.9,1.59-1.16.39-2.51.59-4.04.59-1.24,0-2.35-.14-3.33-.42-.98-.28-1.84-.67-2.59-1.19s-1.38-1.15-1.91-1.9c-.53-.75-.97-1.6-1.32-2.56l2.33-.96c.54,1.7,1.44,3.02,2.7,3.96s2.74,1.41,4.44,1.41Z"/>
      <path class="cls-1" d="M330.58,216.24l12.16,26.43h-4.41l-3.95-8.62h-11.07l-4.08,8.62h-2.18l12.46-26.43h1.07ZM324.08,232.37h9.52l-4.69-10.21-4.82,10.21Z"/>
      <path class="cls-1" d="M347.89,216.83h4.34v24.18h12.99v1.66h-17.33v-25.84Z"/>
      <path class="cls-1" d="M370.15,216.83h4.34v16.76c0,1.11.19,2.15.57,3.12.38.97.92,1.83,1.63,2.55.71.73,1.55,1.3,2.54,1.72.99.42,2.09.63,3.32.63s2.35-.21,3.34-.63,1.83-1,2.52-1.72c.69-.73,1.22-1.58,1.59-2.55s.56-2.02.56-3.12v-16.76h1.92v16.76c0,1.32-.21,2.57-.64,3.74-.43,1.17-1.1,2.2-2.01,3.08-.91.88-2.08,1.58-3.5,2.09-1.43.52-3.14.78-5.15.78-1.79,0-3.37-.26-4.75-.78-1.38-.52-2.52-1.22-3.45-2.11-.92-.89-1.63-1.92-2.11-3.11s-.72-2.45-.72-3.79v-16.67Z"/>
      <path class="cls-1" d="M400.31,216.83h8.58c2.66,0,4.95.25,6.85.74,1.91.49,3.5,1.29,4.78,2.38,1.47,1.24,2.57,2.66,3.31,4.27s1.1,3.37,1.1,5.29c0,1.82-.33,3.53-.99,5.13s-1.63,3-2.89,4.19c-1.27,1.19-2.83,2.13-4.69,2.82-1.86.68-3.99,1.03-6.4,1.03h-9.65v-25.84ZM404.65,240.77h4.58c1.47,0,2.85-.24,4.14-.72s2.41-1.19,3.36-2.14c.95-.95,1.71-2.11,2.26-3.5.55-1.39.83-2.99.83-4.81,0-1.59-.26-3.04-.79-4.38-.52-1.33-1.25-2.48-2.18-3.44-.93-.96-2.04-1.71-3.34-2.24s-2.71-.8-4.23-.8h-4.63v22.02Z"/>
    </g>
  </g>
</svg>